<?xml version="1.0" encoding="UTF-8"?><svg id="Layer_1" xmlns="http://www.w3.org/2000/svg" width="26" height="32" xmlns:xlink="http://www.w3.org/1999/xlink" viewBox="0 0 26 32"><defs><style>.cls-1{fill:url(#linear-gradient);}.cls-1,.cls-2{stroke-width:0px;}.cls-2{fill:#fff;}</style><linearGradient id="linear-gradient" x1="-3.33" y1=".11" x2="23.72" y2="26.43" gradientUnits="userSpaceOnUse"><stop offset="0" stop-color="#122b49"/><stop offset=".21" stop-color="#33295b"/><stop offset=".56" stop-color="#672877"/><stop offset=".82" stop-color="#872788"/><stop offset=".97" stop-color="#93278f"/></linearGradient></defs><rect class="cls-2" width="26" height="32" rx="6" ry="6"/><path class="cls-1" d="m20,0H6C2.69,0,0,2.69,0,6v20c0,3.31,2.69,6,6,6h14c3.31,0,6-2.69,6-6V6c0-3.31-2.69-6-6-6Zm4,26c0,2.21-1.79,4-4,4H6c-2.21,0-4-1.79-4-4V6c0-2.21,1.79-4,4-4h14c2.21,0,4,1.79,4,4v20ZM12.72,9.74c-.38-.45-.86-.82-1.39-1.09.42-.51.66-1.17.66-1.88,0-1.66-1.34-3-3-3s-3,1.34-3,3c0,.72.25,1.38.67,1.9-1.59.84-2.67,2.5-2.67,4.43,0,.24.02.49.05.73.07.45.46.78.91.78h.16c.59,0,.98-.53.9-1.11-.01-.13-.02-.27-.02-.4,0-1.94,1.84-3.45,3.85-2.89.88.25,1.62.92,1.94,1.78.21.54.25,1.08.17,1.58-.09.55.38,1.04.94,1.04h.13c.45,0,.85-.33.91-.78.2-1.35-.14-2.84-1.21-4.09Zm-3.73-3.97c.55,0,1,.45,1,1s-.45,1-1,1-1-.45-1-1,.45-1,1-1Zm11.4,14.42H4.99c-.55,0-1-.45-1-1h0c0-.55.45-1,1-1h15.4c.55,0,1,.45,1,1h0c0,.55-.45,1-1,1Zm-3.29,3.55H4.99c-.55,0-1-.45-1-1h0c0-.55.45-1,1-1h12.11c.55,0,1,.45,1,1h0c0,.55-.45,1-1,1Zm1.85,3.55H4.99c-.55,0-1-.45-1-1h0c0-.55.45-1,1-1h13.96c.55,0,1,.45,1,1h0c0,.55-.45,1-1,1Z"/></svg>